<svg width="201" height="68" viewBox="0 0 201 68" fill="none" xmlns="http://www.w3.org/2000/svg">
<path d="M40.3697 13.649C40.3697 13.649 86.3847 29.8281 17.2192 67.0542C17.2192 67.0542 51.2004 56.5493 58.9472 34.9438C60.7278 29.9755 59.4173 24.3916 55.5646 20.7921C52.678 18.0947 47.985 15.4301 40.3711 13.649H40.3697Z" fill="#1A954E"/>
<path d="M66.522 1.04963C66.522 1.04963 124.255 8.35168 84.2421 51.5913C84.2421 51.5913 102.762 43.3586 104.01 23.5901C105.171 5.18464 80.1656 0.125787 66.522 1.04963Z" fill="#1A954E"/>
<path d="M0.5 13.6491C0.5 13.6491 83.5272 2.1949 72.6665 28.2532C72.6665 28.2532 91.9528 15.9829 63.4592 9.91932C43.8713 5.75053 19.489 8.54564 0.5 13.6491Z" fill="#1A954E"/>
<path d="M129.445 14.4485C130.705 14.4485 131.802 14.6351 132.735 15.0085C133.668 15.3818 134.438 15.8835 135.045 16.5135C135.675 17.1201 136.142 17.8318 136.445 18.6485C136.772 19.4651 136.935 20.3285 136.935 21.2385C136.935 23.5951 135.932 25.2518 133.925 26.2085C135.278 26.6751 136.293 27.4101 136.97 28.4135C137.647 29.4168 137.985 30.6535 137.985 32.1235C137.985 34.1768 137.367 35.8335 136.13 37.0935C134.893 38.3301 133.015 38.9485 130.495 38.9485H122.375V14.4485H129.445ZM125.735 27.7135V36.2185H130.495C131.312 36.2185 131.988 36.0901 132.525 35.8335C133.085 35.5768 133.528 35.2501 133.855 34.8535C134.182 34.4335 134.403 33.9668 134.52 33.4535C134.66 32.9401 134.73 32.4268 134.73 31.9135C134.73 31.4001 134.66 30.8868 134.52 30.3735C134.403 29.8601 134.182 29.4168 133.855 29.0435C133.528 28.6468 133.085 28.3318 132.525 28.0985C131.988 27.8418 131.312 27.7135 130.495 27.7135H125.735ZM125.735 17.1785V24.9835H129.445C130.262 24.9835 130.938 24.8668 131.475 24.6335C132.035 24.3768 132.478 24.0618 132.805 23.6885C133.132 23.3151 133.353 22.8951 133.47 22.4285C133.61 21.9618 133.68 21.4951 133.68 21.0285C133.68 20.5618 133.61 20.1068 133.47 19.6635C133.353 19.1968 133.132 18.7768 132.805 18.4035C132.478 18.0301 132.035 17.7385 131.475 17.5285C130.938 17.2951 130.262 17.1785 129.445 17.1785H125.735Z" fill="#936A2B"/>
<path d="M145.756 17.1785V36.2185H150.061C151.041 36.2185 151.951 36.0318 152.791 35.6585C153.631 35.2618 154.354 34.6668 154.961 33.8735C155.567 33.0801 156.034 32.0885 156.361 30.8985C156.711 29.6851 156.886 28.2735 156.886 26.6635C156.886 25.0535 156.711 23.6535 156.361 22.4635C156.034 21.2735 155.567 20.2935 154.961 19.5235C154.377 18.7301 153.677 18.1468 152.861 17.7735C152.044 17.3768 151.146 17.1785 150.166 17.1785H145.756ZM150.271 14.4485C151.694 14.4485 153.024 14.7051 154.261 15.2185C155.497 15.7318 156.571 16.5018 157.481 17.5285C158.391 18.5551 159.102 19.8268 159.616 21.3435C160.129 22.8601 160.386 24.6335 160.386 26.6635C160.386 28.6935 160.129 30.4785 159.616 32.0185C159.126 33.5351 158.426 34.8068 157.516 35.8335C156.606 36.8601 155.521 37.6418 154.261 38.1785C153.024 38.6918 151.671 38.9485 150.201 38.9485H142.396V14.4485H150.271Z" fill="#936A2B"/>
<path d="M176.236 14.4485V17.1785H169.796V38.9485H166.436V17.1785H159.996V14.4485H176.236Z" fill="#936A2B"/>
<path d="M181.258 17.1785V36.2185H185.563C186.543 36.2185 187.453 36.0318 188.293 35.6585C189.133 35.2618 189.857 34.6668 190.463 33.8735C191.07 33.0801 191.537 32.0885 191.863 30.8985C192.213 29.6851 192.388 28.2735 192.388 26.6635C192.388 25.0535 192.213 23.6535 191.863 22.4635C191.537 21.2735 191.07 20.2935 190.463 19.5235C189.88 18.7301 189.18 18.1468 188.363 17.7735C187.547 17.3768 186.648 17.1785 185.668 17.1785H181.258ZM185.773 14.4485C187.197 14.4485 188.527 14.7051 189.763 15.2185C191 15.7318 192.073 16.5018 192.983 17.5285C193.893 18.5551 194.605 19.8268 195.118 21.3435C195.632 22.8601 195.888 24.6335 195.888 26.6635C195.888 28.6935 195.632 30.4785 195.118 32.0185C194.628 33.5351 193.928 34.8068 193.018 35.8335C192.108 36.8601 191.023 37.6418 189.763 38.1785C188.527 38.6918 187.173 38.9485 185.703 38.9485H177.898V14.4485H185.773Z" fill="#936A2B"/>
<path d="M122.863 45.396H123.867C124.338 45.396 124.679 45.4665 124.89 45.6074C125.1 45.7483 125.206 45.9711 125.206 46.2756C125.206 46.4862 125.147 46.6603 125.028 46.798C124.912 46.9341 124.741 47.0224 124.516 47.0629V47.0872C125.055 47.1795 125.325 47.463 125.325 47.9376C125.325 48.2551 125.217 48.503 125.002 48.6812C124.788 48.8594 124.488 48.9485 124.103 48.9485H122.863V45.396ZM123.276 46.9171H123.957C124.248 46.9171 124.458 46.8717 124.586 46.781C124.714 46.6887 124.778 46.534 124.778 46.3169C124.778 46.1177 124.707 45.9743 124.564 45.8868C124.422 45.7977 124.195 45.7532 123.884 45.7532H123.276V46.9171ZM123.276 47.267V48.5961H124.018C124.304 48.5961 124.52 48.541 124.664 48.4309C124.81 48.3191 124.883 48.145 124.883 47.9085C124.883 47.6882 124.808 47.5262 124.659 47.4225C124.512 47.3188 124.286 47.267 123.984 47.267H123.276ZM126.788 48.9485H126.385V46.2853H126.788V48.9485ZM126.351 45.5637C126.351 45.4713 126.374 45.4041 126.419 45.362C126.464 45.3182 126.521 45.2964 126.589 45.2964C126.654 45.2964 126.71 45.3182 126.757 45.362C126.804 45.4057 126.827 45.4729 126.827 45.5637C126.827 45.6544 126.804 45.7224 126.757 45.7678C126.71 45.8115 126.654 45.8334 126.589 45.8334C126.521 45.8334 126.464 45.8115 126.419 45.7678C126.374 45.7224 126.351 45.6544 126.351 45.5637ZM129.238 46.2416C129.588 46.2416 129.86 46.3615 130.052 46.6012C130.247 46.8393 130.344 47.1771 130.344 47.6145C130.344 48.0518 130.246 48.392 130.05 48.635C129.856 48.8764 129.585 48.9971 129.238 48.9971C129.065 48.9971 128.906 48.9655 128.762 48.9023C128.62 48.8375 128.5 48.7387 128.402 48.6058H128.373L128.288 48.9485H127.999V45.1676H128.402V46.0861C128.402 46.2918 128.396 46.4765 128.383 46.6401H128.402C128.59 46.3744 128.869 46.2416 129.238 46.2416ZM129.18 46.5793C128.905 46.5793 128.706 46.6587 128.585 46.8175C128.463 46.9746 128.402 47.2403 128.402 47.6145C128.402 47.9887 128.465 48.2568 128.59 48.4187C128.714 48.5791 128.914 48.6593 129.19 48.6593C129.438 48.6593 129.622 48.5694 129.744 48.3896C129.865 48.2082 129.926 47.9482 129.926 47.6096C129.926 47.2629 129.865 47.0046 129.744 46.8345C129.622 46.6644 129.434 46.5793 129.18 46.5793ZM131.81 48.9485H131.406V45.1676H131.81V48.9485ZM133.424 48.9485H133.021V46.2853H133.424V48.9485ZM132.987 45.5637C132.987 45.4713 133.009 45.4041 133.055 45.362C133.1 45.3182 133.157 45.2964 133.225 45.2964C133.289 45.2964 133.345 45.3182 133.392 45.362C133.439 45.4057 133.463 45.4729 133.463 45.5637C133.463 45.6544 133.439 45.7224 133.392 45.7678C133.345 45.8115 133.289 45.8334 133.225 45.8334C133.157 45.8334 133.1 45.8115 133.055 45.7678C133.009 45.7224 132.987 45.6544 132.987 45.5637ZM136.933 47.6145C136.933 48.0486 136.824 48.388 136.605 48.6326C136.387 48.8756 136.085 48.9971 135.699 48.9971C135.461 48.9971 135.249 48.9412 135.065 48.8294C134.88 48.7176 134.738 48.5572 134.637 48.3483C134.537 48.1393 134.486 47.8947 134.486 47.6145C134.486 47.1803 134.595 46.8426 134.812 46.6012C135.029 46.3582 135.33 46.2367 135.716 46.2367C136.089 46.2367 136.384 46.3606 136.603 46.6085C136.823 46.8563 136.933 47.1917 136.933 47.6145ZM134.904 47.6145C134.904 47.9546 134.972 48.2138 135.109 48.392C135.245 48.5702 135.445 48.6593 135.709 48.6593C135.973 48.6593 136.173 48.571 136.309 48.3944C136.447 48.2163 136.515 47.9563 136.515 47.6145C136.515 47.2759 136.447 47.0191 136.309 46.8442C136.173 46.6676 135.971 46.5793 135.704 46.5793C135.44 46.5793 135.241 46.666 135.106 46.8393C134.972 47.0127 134.904 47.271 134.904 47.6145ZM138.859 48.6642C138.93 48.6642 138.999 48.6593 139.065 48.6496C139.131 48.6382 139.184 48.6269 139.223 48.6156V48.9242C139.179 48.9452 139.114 48.9622 139.029 48.9752C138.944 48.9898 138.868 48.9971 138.8 48.9971C138.285 48.9971 138.027 48.7257 138.027 48.183V46.5988H137.646V46.4044L138.027 46.2367L138.198 45.6681H138.431V46.2853H139.204V46.5988H138.431V48.166C138.431 48.3264 138.469 48.4495 138.545 48.5354C138.621 48.6212 138.726 48.6642 138.859 48.6642ZM141.238 48.9971C140.844 48.9971 140.533 48.8772 140.305 48.6374C140.078 48.3977 139.965 48.0648 139.965 47.6388C139.965 47.2095 140.07 46.8685 140.281 46.6158C140.493 46.3631 140.777 46.2367 141.134 46.2367C141.467 46.2367 141.731 46.3469 141.926 46.5672C142.12 46.7859 142.217 47.075 142.217 47.4346V47.6898H140.383C140.391 48.0024 140.469 48.2397 140.618 48.4017C140.769 48.5637 140.98 48.6447 141.253 48.6447C141.539 48.6447 141.823 48.5848 142.103 48.4649V48.8245C141.961 48.8861 141.825 48.9298 141.697 48.9557C141.571 48.9833 141.418 48.9971 141.238 48.9971ZM141.129 46.5745C140.915 46.5745 140.744 46.6441 140.616 46.7834C140.49 46.9228 140.415 47.1155 140.392 47.3618H141.785C141.785 47.1074 141.728 46.913 141.615 46.7786C141.501 46.6425 141.339 46.5745 141.129 46.5745ZM144.327 48.9971C143.942 48.9971 143.643 48.8788 143.43 48.6423C143.22 48.4042 143.115 48.068 143.115 47.6339C143.115 47.1884 143.222 46.8442 143.435 46.6012C143.651 46.3582 143.957 46.2367 144.354 46.2367C144.482 46.2367 144.61 46.2505 144.738 46.278C144.866 46.3056 144.966 46.338 145.039 46.3752L144.915 46.7178C144.826 46.6822 144.729 46.653 144.624 46.6304C144.518 46.6061 144.425 46.5939 144.344 46.5939C143.803 46.5939 143.533 46.939 143.533 47.629C143.533 47.9563 143.598 48.2073 143.729 48.3823C143.862 48.5572 144.058 48.6447 144.317 48.6447C144.539 48.6447 144.767 48.5969 145 48.5014V48.8586C144.822 48.9509 144.598 48.9971 144.327 48.9971ZM147.628 48.9485L147.547 48.5694H147.528C147.395 48.7362 147.262 48.8496 147.129 48.9096C146.998 48.9679 146.834 48.9971 146.636 48.9971C146.372 48.9971 146.165 48.929 146.014 48.7929C145.865 48.6569 145.791 48.4633 145.791 48.2122C145.791 47.6744 146.221 47.3925 147.081 47.3666L147.533 47.352V47.1868C147.533 46.9778 147.487 46.8239 147.397 46.7251C147.308 46.6247 147.164 46.5745 146.967 46.5745C146.745 46.5745 146.494 46.6425 146.213 46.7786L146.089 46.47C146.221 46.3987 146.364 46.3428 146.52 46.3023C146.677 46.2618 146.834 46.2416 146.991 46.2416C147.308 46.2416 147.543 46.3121 147.696 46.453C147.849 46.5939 147.926 46.8199 147.926 47.1309V48.9485H147.628ZM146.716 48.6642C146.967 48.6642 147.164 48.5953 147.307 48.4576C147.451 48.3199 147.523 48.1272 147.523 47.8793V47.6388L147.12 47.6558C146.799 47.6671 146.567 47.7173 146.425 47.8064C146.284 47.8939 146.213 48.0308 146.213 48.2171C146.213 48.3629 146.257 48.4738 146.345 48.55C146.434 48.6261 146.558 48.6642 146.716 48.6642ZM153.66 47.1382C153.66 47.7246 153.5 48.1733 153.181 48.4844C152.864 48.7938 152.406 48.9485 151.808 48.9485H150.824V45.396H151.913C152.465 45.396 152.894 45.5491 153.201 45.8552C153.507 46.1614 153.66 46.5891 153.66 47.1382ZM153.222 47.1528C153.222 46.6895 153.106 46.3404 152.873 46.1055C152.641 45.8706 152.296 45.7532 151.837 45.7532H151.237V48.5913H151.74C152.233 48.5913 152.603 48.4706 152.851 48.2292C153.099 47.9862 153.222 47.6274 153.222 47.1528ZM155.152 48.9485H154.749V46.2853H155.152V48.9485ZM154.715 45.5637C154.715 45.4713 154.738 45.4041 154.783 45.362C154.829 45.3182 154.885 45.2964 154.953 45.2964C155.018 45.2964 155.074 45.3182 155.121 45.362C155.168 45.4057 155.191 45.4729 155.191 45.5637C155.191 45.6544 155.168 45.7224 155.121 45.7678C155.074 45.8115 155.018 45.8334 154.953 45.8334C154.885 45.8334 154.829 45.8115 154.783 45.7678C154.738 45.7224 154.715 45.6544 154.715 45.5637ZM158.543 46.2853V46.5405L158.05 46.5988C158.095 46.6555 158.135 46.73 158.171 46.8223C158.207 46.913 158.225 47.0159 158.225 47.1309C158.225 47.3917 158.135 47.5999 157.957 47.7554C157.779 47.9109 157.534 47.9887 157.223 47.9887C157.144 47.9887 157.07 47.9822 157 47.9692C156.828 48.0599 156.742 48.1741 156.742 48.3118C156.742 48.3847 156.772 48.439 156.832 48.4746C156.892 48.5087 156.995 48.5257 157.141 48.5257H157.612C157.901 48.5257 158.122 48.5864 158.276 48.7079C158.431 48.8294 158.509 49.006 158.509 49.2376C158.509 49.5324 158.391 49.7568 158.154 49.9107C157.918 50.0662 157.573 50.1439 157.119 50.1439C156.771 50.1439 156.502 50.0792 156.312 49.9496C156.124 49.82 156.03 49.6369 156.03 49.4004C156.03 49.2384 156.082 49.0983 156.186 48.98C156.29 48.8618 156.435 48.7816 156.623 48.7395C156.555 48.7087 156.498 48.6609 156.451 48.5961C156.405 48.5313 156.383 48.456 156.383 48.3701C156.383 48.273 156.409 48.1879 156.46 48.115C156.512 48.0421 156.594 47.9717 156.706 47.9036C156.568 47.8469 156.456 47.7505 156.368 47.6145C156.282 47.4784 156.239 47.3229 156.239 47.1479C156.239 46.8563 156.327 46.632 156.502 46.4749C156.677 46.3161 156.925 46.2367 157.245 46.2367C157.385 46.2367 157.51 46.2529 157.622 46.2853H158.543ZM156.419 49.3956C156.419 49.5397 156.48 49.6491 156.601 49.7236C156.723 49.7981 156.897 49.8354 157.124 49.8354C157.462 49.8354 157.713 49.7843 157.875 49.6823C158.038 49.5818 158.12 49.445 158.12 49.2716C158.12 49.1275 158.076 49.027 157.986 48.9703C157.897 48.9152 157.73 48.8877 157.483 48.8877H157C156.817 48.8877 156.674 48.9314 156.572 49.0189C156.47 49.1064 156.419 49.2319 156.419 49.3956ZM156.638 47.1382C156.638 47.3245 156.69 47.4654 156.796 47.561C156.901 47.6566 157.048 47.7044 157.236 47.7044C157.629 47.7044 157.826 47.5132 157.826 47.1309C157.826 46.7308 157.627 46.5307 157.228 46.5307C157.039 46.5307 156.893 46.5818 156.791 46.6838C156.689 46.7859 156.638 46.9373 156.638 47.1382ZM159.848 48.9485H159.445V46.2853H159.848V48.9485ZM159.411 45.5637C159.411 45.4713 159.434 45.4041 159.479 45.362C159.524 45.3182 159.581 45.2964 159.649 45.2964C159.714 45.2964 159.77 45.3182 159.817 45.362C159.864 45.4057 159.887 45.4729 159.887 45.5637C159.887 45.6544 159.864 45.7224 159.817 45.7678C159.77 45.8115 159.714 45.8334 159.649 45.8334C159.581 45.8334 159.524 45.8115 159.479 45.7678C159.434 45.7224 159.411 45.6544 159.411 45.5637ZM161.919 48.6642C161.991 48.6642 162.059 48.6593 162.126 48.6496C162.192 48.6382 162.245 48.6269 162.284 48.6156V48.9242C162.24 48.9452 162.175 48.9622 162.089 48.9752C162.005 48.9898 161.929 48.9971 161.861 48.9971C161.346 48.9971 161.088 48.7257 161.088 48.183V46.5988H160.707V46.4044L161.088 46.2367L161.258 45.6681H161.492V46.2853H162.264V46.5988H161.492V48.166C161.492 48.3264 161.53 48.4495 161.606 48.5354C161.682 48.6212 161.786 48.6642 161.919 48.6642ZM164.812 48.9485L164.731 48.5694H164.712C164.579 48.7362 164.446 48.8496 164.313 48.9096C164.182 48.9679 164.018 48.9971 163.82 48.9971C163.556 48.9971 163.349 48.929 163.198 48.7929C163.049 48.6569 162.975 48.4633 162.975 48.2122C162.975 47.6744 163.405 47.3925 164.265 47.3666L164.717 47.352V47.1868C164.717 46.9778 164.671 46.8239 164.581 46.7251C164.492 46.6247 164.348 46.5745 164.151 46.5745C163.929 46.5745 163.678 46.6425 163.397 46.7786L163.273 46.47C163.405 46.3987 163.548 46.3428 163.704 46.3023C163.861 46.2618 164.018 46.2416 164.175 46.2416C164.492 46.2416 164.727 46.3121 164.88 46.453C165.033 46.5939 165.11 46.8199 165.11 47.1309V48.9485H164.812ZM163.9 48.6642C164.151 48.6642 164.348 48.5953 164.491 48.4576C164.635 48.3199 164.707 48.1272 164.707 47.8793V47.6388L164.304 47.6558C163.983 47.6671 163.751 47.7173 163.609 47.8064C163.468 47.8939 163.397 48.0308 163.397 48.2171C163.397 48.3629 163.441 48.4738 163.529 48.55C163.618 48.6261 163.742 48.6642 163.9 48.6642ZM166.703 48.9485H166.299V45.1676H166.703V48.9485ZM169.622 45.396H170.626C171.097 45.396 171.438 45.4665 171.649 45.6074C171.859 45.7483 171.965 45.9711 171.965 46.2756C171.965 46.4862 171.906 46.6603 171.787 46.798C171.671 46.9341 171.5 47.0224 171.275 47.0629V47.0872C171.814 47.1795 172.084 47.463 172.084 47.9376C172.084 48.2551 171.976 48.503 171.761 48.6812C171.547 48.8594 171.247 48.9485 170.862 48.9485H169.622V45.396ZM170.035 46.9171H170.716C171.007 46.9171 171.217 46.8717 171.345 46.781C171.473 46.6887 171.537 46.534 171.537 46.3169C171.537 46.1177 171.466 45.9743 171.323 45.8868C171.181 45.7977 170.954 45.7532 170.643 45.7532H170.035V46.9171ZM170.035 47.267V48.5961H170.777C171.063 48.5961 171.279 48.541 171.423 48.4309C171.569 48.3191 171.642 48.145 171.642 47.9085C171.642 47.6882 171.567 47.5262 171.418 47.4225C171.271 47.3188 171.045 47.267 170.743 47.267H170.035ZM174.359 46.2367C174.477 46.2367 174.583 46.2464 174.677 46.2659L174.621 46.6401C174.511 46.6158 174.414 46.6036 174.33 46.6036C174.114 46.6036 173.93 46.6911 173.776 46.8661C173.623 47.041 173.547 47.2589 173.547 47.5197V48.9485H173.144V46.2853H173.477L173.523 46.7786H173.542C173.641 46.6053 173.76 46.4716 173.9 46.3777C174.039 46.2837 174.192 46.2367 174.359 46.2367ZM177.168 48.9485L177.088 48.5694H177.069C176.936 48.7362 176.803 48.8496 176.67 48.9096C176.539 48.9679 176.375 48.9971 176.177 48.9971C175.913 48.9971 175.706 48.929 175.555 48.7929C175.406 48.6569 175.331 48.4633 175.331 48.2122C175.331 47.6744 175.762 47.3925 176.622 47.3666L177.074 47.352V47.1868C177.074 46.9778 177.028 46.8239 176.938 46.7251C176.849 46.6247 176.705 46.5745 176.508 46.5745C176.286 46.5745 176.035 46.6425 175.754 46.7786L175.63 46.47C175.762 46.3987 175.905 46.3428 176.06 46.3023C176.218 46.2618 176.375 46.2416 176.532 46.2416C176.849 46.2416 177.084 46.3121 177.236 46.453C177.39 46.5939 177.467 46.8199 177.467 47.1309V48.9485H177.168ZM176.257 48.6642C176.508 48.6642 176.705 48.5953 176.848 48.4576C176.992 48.3199 177.064 48.1272 177.064 47.8793V47.6388L176.661 47.6558C176.34 47.6671 176.108 47.7173 175.966 47.8064C175.825 47.8939 175.754 48.0308 175.754 48.2171C175.754 48.3629 175.798 48.4738 175.885 48.55C175.975 48.6261 176.099 48.6642 176.257 48.6642ZM180.374 48.2219C180.374 48.4698 180.282 48.6609 180.097 48.7954C179.912 48.9298 179.653 48.9971 179.32 48.9971C178.966 48.9971 178.691 48.9412 178.493 48.8294V48.4552C178.621 48.52 178.758 48.571 178.904 48.6083C179.051 48.6455 179.193 48.6642 179.329 48.6642C179.54 48.6642 179.702 48.631 179.815 48.5645C179.929 48.4965 179.985 48.3936 179.985 48.2559C179.985 48.1523 179.94 48.064 179.849 47.9911C179.76 47.9166 179.585 47.8291 179.324 47.7287C179.077 47.6363 178.9 47.5561 178.795 47.4881C178.691 47.4185 178.613 47.3399 178.561 47.2524C178.511 47.1649 178.486 47.0605 178.486 46.939C178.486 46.7219 178.574 46.551 178.751 46.4263C178.928 46.2999 179.17 46.2367 179.478 46.2367C179.764 46.2367 180.044 46.295 180.318 46.4117L180.175 46.7397C179.908 46.6296 179.665 46.5745 179.448 46.5745C179.257 46.5745 179.113 46.6044 179.016 46.6644C178.919 46.7243 178.87 46.8069 178.87 46.9122C178.87 46.9835 178.888 47.0443 178.924 47.0945C178.961 47.1447 179.02 47.1925 179.101 47.2378C179.182 47.2832 179.337 47.3488 179.567 47.4346C179.883 47.5497 180.096 47.6655 180.206 47.7821C180.318 47.8988 180.374 48.0454 180.374 48.2219ZM181.791 48.9485H181.388V46.2853H181.791V48.9485ZM181.354 45.5637C181.354 45.4713 181.377 45.4041 181.422 45.362C181.467 45.3182 181.524 45.2964 181.592 45.2964C181.657 45.2964 181.713 45.3182 181.76 45.362C181.807 45.4057 181.83 45.4729 181.83 45.5637C181.83 45.6544 181.807 45.7224 181.76 45.7678C181.713 45.8115 181.657 45.8334 181.592 45.8334C181.524 45.8334 181.467 45.8115 181.422 45.7678C181.377 45.7224 181.354 45.6544 181.354 45.5637ZM183.406 48.9485H183.002V45.1676H183.406V48.9485ZM185.741 48.9971C185.348 48.9971 185.037 48.8772 184.808 48.6374C184.582 48.3977 184.468 48.0648 184.468 47.6388C184.468 47.2095 184.573 46.8685 184.784 46.6158C184.996 46.3631 185.281 46.2367 185.637 46.2367C185.971 46.2367 186.235 46.3469 186.429 46.5672C186.623 46.7859 186.721 47.075 186.721 47.4346V47.6898H184.886C184.894 48.0024 184.973 48.2397 185.122 48.4017C185.272 48.5637 185.484 48.6447 185.756 48.6447C186.043 48.6447 186.326 48.5848 186.606 48.4649V48.8245C186.464 48.8861 186.329 48.9298 186.201 48.9557C186.074 48.9833 185.921 48.9971 185.741 48.9971ZM185.632 46.5745C185.418 46.5745 185.247 46.6441 185.119 46.7834C184.993 46.9228 184.918 47.1155 184.896 47.3618H186.288C186.288 47.1074 186.231 46.913 186.118 46.7786C186.005 46.6425 185.843 46.5745 185.632 46.5745ZM188.169 48.9485H187.766V46.2853H188.169V48.9485ZM187.732 45.5637C187.732 45.4713 187.755 45.4041 187.8 45.362C187.846 45.3182 187.902 45.2964 187.97 45.2964C188.035 45.2964 188.091 45.3182 188.138 45.362C188.185 45.4057 188.208 45.4729 188.208 45.5637C188.208 45.6544 188.185 45.7224 188.138 45.7678C188.091 45.8115 188.035 45.8334 187.97 45.8334C187.902 45.8334 187.846 45.8115 187.8 45.7678C187.755 45.7224 187.732 45.6544 187.732 45.5637ZM190.595 46.2367C190.713 46.2367 190.82 46.2464 190.914 46.2659L190.858 46.6401C190.747 46.6158 190.65 46.6036 190.566 46.6036C190.351 46.6036 190.166 46.6911 190.012 46.8661C189.86 47.041 189.784 47.2589 189.784 47.5197V48.9485H189.38V46.2853H189.713L189.759 46.7786H189.779C189.878 46.6053 189.997 46.4716 190.136 46.3777C190.275 46.2837 190.428 46.2367 190.595 46.2367ZM193.405 48.9485L193.325 48.5694H193.305C193.172 48.7362 193.04 48.8496 192.907 48.9096C192.775 48.9679 192.611 48.9971 192.413 48.9971C192.149 48.9971 191.942 48.929 191.791 48.7929C191.642 48.6569 191.568 48.4633 191.568 48.2122C191.568 47.6744 191.998 47.3925 192.858 47.3666L193.31 47.352V47.1868C193.31 46.9778 193.265 46.8239 193.174 46.7251C193.085 46.6247 192.942 46.5745 192.744 46.5745C192.522 46.5745 192.271 46.6425 191.991 46.7786L191.867 46.47C191.998 46.3987 192.141 46.3428 192.297 46.3023C192.454 46.2618 192.611 46.2416 192.768 46.2416C193.086 46.2416 193.321 46.3121 193.473 46.453C193.627 46.5939 193.704 46.8199 193.704 47.1309V48.9485H193.405ZM192.494 48.6642C192.745 48.6642 192.942 48.5953 193.084 48.4576C193.228 48.3199 193.3 48.1272 193.3 47.8793V47.6388L192.897 47.6558C192.576 47.6671 192.345 47.7173 192.202 47.8064C192.061 47.8939 191.991 48.0308 191.991 48.2171C191.991 48.3629 192.034 48.4738 192.122 48.55C192.211 48.6261 192.335 48.6642 192.494 48.6642ZM124.615 56.5913H124.593C124.407 56.8618 124.129 56.9971 123.758 56.9971C123.409 56.9971 123.138 56.878 122.944 56.6399C122.751 56.4017 122.654 56.0632 122.654 55.6242C122.654 55.1852 122.752 54.8442 122.946 54.6012C123.14 54.3582 123.411 54.2367 123.758 54.2367C124.119 54.2367 124.396 54.3679 124.589 54.6304H124.62L124.603 54.4384L124.593 54.2513V53.1676H124.997V56.9485H124.669L124.615 56.5913ZM123.809 56.6593C124.084 56.6593 124.283 56.5848 124.406 56.4358C124.531 56.2851 124.593 56.0429 124.593 55.7092V55.6242C124.593 55.2467 124.53 54.9778 124.404 54.8175C124.279 54.6555 124.079 54.5745 123.804 54.5745C123.567 54.5745 123.386 54.6668 123.259 54.8515C123.135 55.0345 123.072 55.2937 123.072 55.629C123.072 55.9692 123.135 56.226 123.259 56.3993C123.384 56.5726 123.567 56.6593 123.809 56.6593ZM127.335 56.9971C126.941 56.9971 126.63 56.8772 126.402 56.6374C126.175 56.3977 126.062 56.0648 126.062 55.6388C126.062 55.2095 126.167 54.8685 126.378 54.6158C126.59 54.3631 126.874 54.2367 127.231 54.2367C127.564 54.2367 127.828 54.3469 128.023 54.5672C128.217 54.7859 128.314 55.075 128.314 55.4346V55.6898H126.48C126.488 56.0024 126.566 56.2397 126.715 56.4017C126.866 56.5637 127.077 56.6447 127.35 56.6447C127.636 56.6447 127.92 56.5848 128.2 56.4649V56.8245C128.058 56.8861 127.922 56.9298 127.794 56.9557C127.668 56.9833 127.515 56.9971 127.335 56.9971ZM127.226 54.5745C127.012 54.5745 126.841 54.6441 126.713 54.7834C126.587 54.9228 126.512 55.1155 126.489 55.3618H127.882C127.882 55.1074 127.825 54.913 127.712 54.7786C127.598 54.6425 127.436 54.5745 127.226 54.5745ZM132.162 56.9485H131.749V53.7629H130.624V53.396H133.287V53.7629H132.162V56.9485ZM135.244 56.9971C134.85 56.9971 134.539 56.8772 134.311 56.6374C134.084 56.3977 133.971 56.0648 133.971 55.6388C133.971 55.2095 134.076 54.8685 134.287 54.6158C134.499 54.3631 134.783 54.2367 135.139 54.2367C135.473 54.2367 135.737 54.3469 135.932 54.5672C136.126 54.7859 136.223 55.075 136.223 55.4346V55.6898H134.389C134.397 56.0024 134.475 56.2397 134.624 56.4017C134.775 56.5637 134.986 56.6447 135.258 56.6447C135.545 56.6447 135.829 56.5848 136.109 56.4649V56.8245C135.966 56.8861 135.831 56.9298 135.703 56.9557C135.577 56.9833 135.424 56.9971 135.244 56.9971ZM135.135 54.5745C134.921 54.5745 134.75 54.6441 134.622 54.7834C134.496 54.9228 134.421 55.1155 134.398 55.3618H135.791C135.791 55.1074 135.734 54.913 135.621 54.7786C135.507 54.6425 135.345 54.5745 135.135 54.5745ZM138.987 56.2219C138.987 56.4698 138.894 56.6609 138.71 56.7954C138.525 56.9298 138.266 56.9971 137.932 56.9971C137.579 56.9971 137.304 56.9412 137.106 56.8294V56.4552C137.234 56.52 137.371 56.571 137.517 56.6083C137.664 56.6455 137.806 56.6642 137.942 56.6642C138.152 56.6642 138.314 56.631 138.428 56.5645C138.541 56.4965 138.598 56.3936 138.598 56.2559C138.598 56.1523 138.552 56.064 138.462 55.9911C138.373 55.9166 138.198 55.8291 137.937 55.7287C137.689 55.6363 137.512 55.5561 137.407 55.4881C137.304 55.4185 137.226 55.3399 137.174 55.2524C137.124 55.1649 137.099 55.0605 137.099 54.939C137.099 54.7219 137.187 54.551 137.363 54.4263C137.54 54.2999 137.782 54.2367 138.09 54.2367C138.377 54.2367 138.657 54.295 138.931 54.4117L138.787 54.7397C138.52 54.6296 138.278 54.5745 138.061 54.5745C137.87 54.5745 137.725 54.6044 137.628 54.6644C137.531 54.7243 137.483 54.8069 137.483 54.9122C137.483 54.9835 137.5 55.0443 137.536 55.0945C137.573 55.1447 137.632 55.1925 137.713 55.2378C137.794 55.2832 137.95 55.3488 138.18 55.4346C138.496 55.5497 138.709 55.6655 138.819 55.7821C138.931 55.8988 138.987 56.0454 138.987 56.2219ZM141.126 56.9971C140.732 56.9971 140.421 56.8772 140.193 56.6374C139.966 56.3977 139.852 56.0648 139.852 55.6388C139.852 55.2095 139.958 54.8685 140.168 54.6158C140.38 54.3631 140.665 54.2367 141.021 54.2367C141.355 54.2367 141.619 54.3469 141.813 54.5672C142.008 54.7859 142.105 55.075 142.105 55.4346V55.6898H140.27C140.278 56.0024 140.357 56.2397 140.506 56.4017C140.657 56.5637 140.868 56.6447 141.14 56.6447C141.427 56.6447 141.71 56.5848 141.991 56.4649V56.8245C141.848 56.8861 141.713 56.9298 141.585 56.9557C141.458 56.9833 141.305 56.9971 141.126 56.9971ZM141.016 54.5745C140.802 54.5745 140.632 54.6441 140.504 54.7834C140.377 54.9228 140.303 55.1155 140.28 55.3618H141.672C141.672 55.1074 141.616 54.913 141.502 54.7786C141.389 54.6425 141.227 54.5745 141.016 54.5745ZM144.868 56.2219C144.868 56.4698 144.776 56.6609 144.591 56.7954C144.407 56.9298 144.147 56.9971 143.814 56.9971C143.461 56.9971 143.185 56.9412 142.988 56.8294V56.4552C143.116 56.52 143.252 56.571 143.398 56.6083C143.546 56.6455 143.687 56.6642 143.823 56.6642C144.034 56.6642 144.196 56.631 144.309 56.5645C144.423 56.4965 144.479 56.3936 144.479 56.2559C144.479 56.1523 144.434 56.064 144.343 55.9911C144.254 55.9166 144.079 55.8291 143.819 55.7287C143.571 55.6363 143.394 55.5561 143.289 55.4881C143.185 55.4185 143.107 55.3399 143.056 55.2524C143.005 55.1649 142.98 55.0605 142.98 54.939C142.98 54.7219 143.069 54.551 143.245 54.4263C143.422 54.2999 143.664 54.2367 143.972 54.2367C144.258 54.2367 144.539 54.295 144.812 54.4117L144.669 54.7397C144.402 54.6296 144.16 54.5745 143.942 54.5745C143.751 54.5745 143.607 54.6044 143.51 54.6644C143.413 54.7243 143.364 54.8069 143.364 54.9122C143.364 54.9835 143.382 55.0443 143.418 55.0945C143.455 55.1447 143.514 55.1925 143.595 55.2378C143.676 55.2832 143.832 55.3488 144.062 55.4346C144.377 55.5497 144.59 55.6655 144.701 55.7821C144.812 55.8988 144.868 56.0454 144.868 56.2219ZM148.655 56.9971C148.262 56.9971 147.951 56.8772 147.722 56.6374C147.496 56.3977 147.382 56.0648 147.382 55.6388C147.382 55.2095 147.487 54.8685 147.698 54.6158C147.91 54.3631 148.195 54.2367 148.551 54.2367C148.885 54.2367 149.149 54.3469 149.343 54.5672C149.537 54.7859 149.635 55.075 149.635 55.4346V55.6898H147.8C147.808 56.0024 147.887 56.2397 148.036 56.4017C148.186 56.5637 148.398 56.6447 148.67 56.6447C148.957 56.6447 149.24 56.5848 149.52 56.4649V56.8245C149.378 56.8861 149.243 56.9298 149.115 56.9557C148.988 56.9833 148.835 56.9971 148.655 56.9971ZM148.546 54.5745C148.332 54.5745 148.161 54.6441 148.033 54.7834C147.907 54.9228 147.832 55.1155 147.81 55.3618H149.202C149.202 55.1074 149.145 54.913 149.032 54.7786C148.919 54.6425 148.757 54.5745 148.546 54.5745ZM155.225 55.1382C155.225 55.7246 155.065 56.1733 154.746 56.4844C154.429 56.7938 153.971 56.9485 153.373 56.9485H152.389V53.396H153.478C154.03 53.396 154.459 53.5491 154.765 53.8552C155.072 54.1614 155.225 54.5891 155.225 55.1382ZM154.787 55.1528C154.787 54.6895 154.671 54.3404 154.437 54.1055C154.206 53.8706 153.861 53.7532 153.402 53.7532H152.802V56.5913H153.305C153.798 56.5913 154.168 56.4706 154.416 56.2292C154.663 55.9862 154.787 55.6274 154.787 55.1528ZM156.717 56.9485H156.314V54.2853H156.717V56.9485ZM156.28 53.5637C156.28 53.4713 156.303 53.4041 156.348 53.362C156.393 53.3182 156.45 53.2964 156.518 53.2964C156.583 53.2964 156.639 53.3182 156.686 53.362C156.733 53.4057 156.756 53.4729 156.756 53.5637C156.756 53.6544 156.733 53.7224 156.686 53.7678C156.639 53.8115 156.583 53.8334 156.518 53.8334C156.45 53.8334 156.393 53.8115 156.348 53.7678C156.303 53.7224 156.28 53.6544 156.28 53.5637ZM159.646 56.2219C159.646 56.4698 159.554 56.6609 159.369 56.7954C159.184 56.9298 158.925 56.9971 158.591 56.9971C158.238 56.9971 157.963 56.9412 157.765 56.8294V56.4552C157.893 56.52 158.03 56.571 158.176 56.6083C158.323 56.6455 158.465 56.6642 158.601 56.6642C158.812 56.6642 158.974 56.631 159.087 56.5645C159.201 56.4965 159.257 56.3936 159.257 56.2559C159.257 56.1523 159.212 56.064 159.121 55.9911C159.032 55.9166 158.857 55.8291 158.596 55.7287C158.348 55.6363 158.172 55.5561 158.067 55.4881C157.963 55.4185 157.885 55.3399 157.833 55.2524C157.783 55.1649 157.758 55.0605 157.758 54.939C157.758 54.7219 157.846 54.551 158.023 54.4263C158.199 54.2999 158.442 54.2367 158.749 54.2367C159.036 54.2367 159.316 54.295 159.59 54.4117L159.447 54.7397C159.179 54.6296 158.937 54.5745 158.72 54.5745C158.529 54.5745 158.385 54.6044 158.288 54.6644C158.191 54.7243 158.142 54.8069 158.142 54.9122C158.142 54.9835 158.16 55.0443 158.195 55.0945C158.233 55.1447 158.292 55.1925 158.373 55.2378C158.454 55.2832 158.609 55.3488 158.839 55.4346C159.155 55.5497 159.368 55.6655 159.478 55.7821C159.59 55.8988 159.646 56.0454 159.646 56.2219ZM162.378 56.2219C162.378 56.4698 162.286 56.6609 162.101 56.7954C161.916 56.9298 161.657 56.9971 161.323 56.9971C160.97 56.9971 160.695 56.9412 160.497 56.8294V56.4552C160.625 56.52 160.762 56.571 160.908 56.6083C161.055 56.6455 161.197 56.6642 161.333 56.6642C161.544 56.6642 161.706 56.631 161.819 56.5645C161.932 56.4965 161.989 56.3936 161.989 56.2559C161.989 56.1523 161.944 56.064 161.853 55.9911C161.764 55.9166 161.589 55.8291 161.328 55.7287C161.08 55.6363 160.904 55.5561 160.798 55.4881C160.695 55.4185 160.617 55.3399 160.565 55.2524C160.515 55.1649 160.49 55.0605 160.49 54.939C160.49 54.7219 160.578 54.551 160.755 54.4263C160.931 54.2999 161.173 54.2367 161.481 54.2367C161.768 54.2367 162.048 54.295 162.322 54.4117L162.179 54.7397C161.911 54.6296 161.669 54.5745 161.452 54.5745C161.261 54.5745 161.117 54.6044 161.02 54.6644C160.922 54.7243 160.874 54.8069 160.874 54.9122C160.874 54.9835 160.892 55.0443 160.927 55.0945C160.964 55.1447 161.024 55.1925 161.105 55.2378C161.186 55.2832 161.341 55.3488 161.571 55.4346C161.887 55.5497 162.1 55.6655 162.21 55.7821C162.322 55.8988 162.378 56.0454 162.378 56.2219ZM164.517 56.9971C164.123 56.9971 163.812 56.8772 163.584 56.6374C163.357 56.3977 163.244 56.0648 163.244 55.6388C163.244 55.2095 163.349 54.8685 163.559 54.6158C163.772 54.3631 164.056 54.2367 164.412 54.2367C164.746 54.2367 165.01 54.3469 165.204 54.5672C165.399 54.7859 165.496 55.075 165.496 55.4346V55.6898H163.662C163.67 56.0024 163.748 56.2397 163.897 56.4017C164.048 56.5637 164.259 56.6447 164.531 56.6447C164.818 56.6447 165.102 56.5848 165.382 56.4649V56.8245C165.239 56.8861 165.104 56.9298 164.976 56.9557C164.85 56.9833 164.697 56.9971 164.517 56.9971ZM164.408 54.5745C164.194 54.5745 164.023 54.6441 163.895 54.7834C163.768 54.9228 163.694 55.1155 163.671 55.3618H165.064C165.064 55.1074 165.007 54.913 164.893 54.7786C164.78 54.6425 164.618 54.5745 164.408 54.5745ZM167.757 54.2367C167.875 54.2367 167.981 54.2464 168.075 54.2659L168.019 54.6401C167.909 54.6158 167.812 54.6036 167.727 54.6036C167.512 54.6036 167.327 54.6911 167.173 54.8661C167.021 55.041 166.945 55.2589 166.945 55.5197V56.9485H166.542V54.2853H166.875L166.921 54.7786H166.94C167.039 54.6053 167.158 54.4716 167.297 54.3777C167.437 54.2837 167.59 54.2367 167.757 54.2367ZM169.789 56.6642C169.86 56.6642 169.929 56.6593 169.995 56.6496C170.062 56.6382 170.114 56.6269 170.153 56.6156V56.9242C170.109 56.9452 170.045 56.9622 169.959 56.9752C169.874 56.9898 169.798 56.9971 169.73 56.9971C169.215 56.9971 168.958 56.7257 168.958 56.183V54.5988H168.576V54.4044L168.958 54.2367L169.128 53.6681H169.361V54.2853H170.134V54.5988H169.361V56.166C169.361 56.3264 169.399 56.4495 169.475 56.5354C169.551 56.6212 169.656 56.6642 169.789 56.6642ZM172.681 56.9485L172.601 56.5694H172.581C172.448 56.7362 172.316 56.8496 172.183 56.9096C172.052 56.9679 171.887 56.9971 171.689 56.9971C171.425 56.9971 171.218 56.929 171.067 56.7929C170.918 56.6569 170.844 56.4633 170.844 56.2122C170.844 55.6744 171.274 55.3925 172.134 55.3666L172.586 55.352V55.1868C172.586 54.9778 172.541 54.8239 172.45 54.7251C172.361 54.6247 172.218 54.5745 172.02 54.5745C171.798 54.5745 171.547 54.6425 171.267 54.7786L171.143 54.47C171.274 54.3987 171.417 54.3428 171.573 54.3023C171.73 54.2618 171.887 54.2416 172.044 54.2416C172.362 54.2416 172.597 54.3121 172.749 54.453C172.903 54.5939 172.98 54.8199 172.98 55.1309V56.9485H172.681ZM171.77 56.6642C172.021 56.6642 172.218 56.5953 172.36 56.4576C172.504 56.3199 172.576 56.1272 172.576 55.8793V55.6388L172.173 55.6558C171.852 55.6671 171.621 55.7173 171.478 55.8064C171.337 55.8939 171.267 56.0308 171.267 56.2171C171.267 56.3629 171.31 56.4738 171.398 56.55C171.487 56.6261 171.611 56.6642 171.77 56.6642ZM175.233 56.9971C174.847 56.9971 174.548 56.8788 174.336 56.6423C174.126 56.4042 174.02 56.068 174.02 55.6339C174.02 55.1884 174.127 54.8442 174.341 54.6012C174.557 54.3582 174.863 54.2367 175.26 54.2367C175.388 54.2367 175.516 54.2505 175.644 54.278C175.772 54.3056 175.872 54.338 175.945 54.3752L175.821 54.7178C175.732 54.6822 175.635 54.653 175.529 54.6304C175.424 54.6061 175.331 54.5939 175.25 54.5939C174.709 54.5939 174.438 54.939 174.438 55.629C174.438 55.9563 174.504 56.2073 174.635 56.3823C174.768 56.5572 174.964 56.6447 175.223 56.6447C175.445 56.6447 175.673 56.5969 175.906 56.5014V56.8586C175.728 56.9509 175.503 56.9971 175.233 56.9971ZM175.593 57.6507C175.593 57.8078 175.53 57.9293 175.405 58.0152C175.282 58.101 175.099 58.1439 174.856 58.1439C174.774 58.1439 174.696 58.1367 174.623 58.1221V57.8645C174.696 57.8775 174.78 57.884 174.876 57.884C175.004 57.884 175.1 57.8678 175.165 57.8354C175.231 57.803 175.264 57.743 175.264 57.6555C175.264 57.5859 175.232 57.5292 175.167 57.4855C175.104 57.4433 174.984 57.4085 174.808 57.381L175.021 56.9485H175.289L175.155 57.2279C175.447 57.2911 175.593 57.432 175.593 57.6507ZM179.194 55.6145C179.194 56.0486 179.085 56.388 178.866 56.6326C178.648 56.8756 178.345 56.9971 177.96 56.9971C177.722 56.9971 177.51 56.9412 177.326 56.8294C177.141 56.7176 176.998 56.5572 176.898 56.3483C176.798 56.1393 176.747 55.8947 176.747 55.6145C176.747 55.1803 176.856 54.8426 177.073 54.6012C177.29 54.3582 177.591 54.2367 177.977 54.2367C178.349 54.2367 178.645 54.3606 178.864 54.6085C179.084 54.8563 179.194 55.1917 179.194 55.6145ZM177.165 55.6145C177.165 55.9546 177.233 56.2138 177.369 56.392C177.506 56.5702 177.706 56.6593 177.97 56.6593C178.234 56.6593 178.434 56.571 178.57 56.3944C178.707 56.2163 178.776 55.9563 178.776 55.6145C178.776 55.2759 178.707 55.0191 178.57 54.8442C178.434 54.6676 178.232 54.5793 177.965 54.5793C177.701 54.5793 177.501 54.666 177.367 54.8393C177.233 55.0127 177.165 55.271 177.165 55.6145ZM178.346 53.9281C178.277 53.9281 178.209 53.9136 178.142 53.8844C178.076 53.8536 178.01 53.8204 177.945 53.7848C177.882 53.7475 177.821 53.7143 177.761 53.6851C177.702 53.6544 177.646 53.639 177.591 53.639C177.51 53.639 177.448 53.6633 177.406 53.7119C177.365 53.7605 177.334 53.8342 177.311 53.933H177.073C177.094 53.737 177.151 53.5839 177.243 53.4737C177.337 53.362 177.458 53.3061 177.605 53.3061C177.68 53.3061 177.752 53.3215 177.821 53.3523C177.891 53.3814 177.957 53.4146 178.021 53.4519C178.084 53.4875 178.145 53.5207 178.203 53.5515C178.261 53.5807 178.316 53.5952 178.368 53.5952C178.447 53.5952 178.507 53.5718 178.545 53.5248C178.584 53.4762 178.616 53.4017 178.64 53.3012H178.881C178.86 53.4972 178.803 53.6511 178.711 53.7629C178.62 53.8731 178.499 53.9281 178.346 53.9281ZM181.384 56.9971C180.991 56.9971 180.68 56.8772 180.451 56.6374C180.224 56.3977 180.111 56.0648 180.111 55.6388C180.111 55.2095 180.216 54.8685 180.427 54.6158C180.639 54.3631 180.923 54.2367 181.28 54.2367C181.613 54.2367 181.878 54.3469 182.072 54.5672C182.266 54.7859 182.364 55.075 182.364 55.4346V55.6898H180.529C180.537 56.0024 180.616 56.2397 180.765 56.4017C180.915 56.5637 181.127 56.6447 181.399 56.6447C181.686 56.6447 181.969 56.5848 182.249 56.4649V56.8245C182.107 56.8861 181.971 56.9298 181.844 56.9557C181.717 56.9833 181.564 56.9971 181.384 56.9971ZM181.275 54.5745C181.061 54.5745 180.89 54.6441 180.762 54.7834C180.636 54.9228 180.561 55.1155 180.539 55.3618H181.931C181.931 55.1074 181.874 54.913 181.761 54.7786C181.648 54.6425 181.486 54.5745 181.275 54.5745ZM185.127 56.2219C185.127 56.4698 185.035 56.6609 184.85 56.7954C184.665 56.9298 184.406 56.9971 184.072 56.9971C183.719 56.9971 183.444 56.9412 183.246 56.8294V56.4552C183.374 56.52 183.511 56.571 183.657 56.6083C183.804 56.6455 183.946 56.6642 184.082 56.6642C184.293 56.6642 184.455 56.631 184.568 56.5645C184.681 56.4965 184.738 56.3936 184.738 56.2559C184.738 56.1523 184.693 56.064 184.602 55.9911C184.513 55.9166 184.338 55.8291 184.077 55.7287C183.829 55.6363 183.653 55.5561 183.548 55.4881C183.444 55.4185 183.366 55.3399 183.314 55.2524C183.264 55.1649 183.239 55.0605 183.239 54.939C183.239 54.7219 183.327 54.551 183.504 54.4263C183.68 54.2999 183.923 54.2367 184.23 54.2367C184.517 54.2367 184.797 54.295 185.071 54.4117L184.928 54.7397C184.66 54.6296 184.418 54.5745 184.201 54.5745C184.01 54.5745 183.866 54.6044 183.769 54.6644C183.671 54.7243 183.623 54.8069 183.623 54.9122C183.623 54.9835 183.641 55.0443 183.676 55.0945C183.714 55.1447 183.773 55.1925 183.854 55.2378C183.935 55.2832 184.09 55.3488 184.32 55.4346C184.636 55.5497 184.849 55.6655 184.959 55.7821C185.071 55.8988 185.127 56.0454 185.127 56.2219Z" fill="black"/>
</svg>
